<?xml version="1.0" encoding="UTF-8"?>
<svg width="64px" height="64px" viewBox="0 0 64 64" version="1.1" xmlns="http://www.w3.org/2000/svg" xmlns:xlink="http://www.w3.org/1999/xlink">
    <title>编组备份 13</title>
    <g id="页面-1" stroke="none" stroke-width="1" fill="none" fill-rule="evenodd">
        <g id="插图" transform="translate(-52.000000, -151.000000)">
            <g id="编组备份-13" transform="translate(52.000000, 151.000000)">
                <rect id="矩形" x="0" y="0" width="64" height="64" rx="4"></rect>
                <g id="编组-2" transform="translate(8.000000, 9.000000)">
                    <rect id="矩形备份-74" fill="#E6EAE9" x="3" y="17.8571429" width="37" height="26" rx="2"></rect>
                    <rect id="矩形备份-74" fill="#E6EAE9" x="0" y="23.8571429" width="43" height="14" rx="2"></rect>
                    <rect id="矩形备份-75" fill="#FF7E00" transform="translate(28.857143, 11.000000) rotate(90.000000) translate(-28.857143, -11.000000) " x="24.3571429" y="9.5" width="9" height="3" rx="1.5"></rect>
                    <rect id="矩形备份-76" fill="#FF7E00" transform="translate(20.857143, 11.000000) rotate(90.000000) translate(-20.857143, -11.000000) " x="16.3571429" y="9.5" width="9" height="3" rx="1.5"></rect>
                    <rect id="矩形备份-77" fill="#FF7E00" transform="translate(12.857143, 11.000000) rotate(90.000000) translate(-12.857143, -11.000000) " x="8.35714286" y="9.5" width="9" height="3" rx="1.5"></rect>
                    <rect id="矩形备份-79" fill="#FF7E00" transform="translate(42.928571, 9.000000) rotate(90.000000) translate(-42.928571, -9.000000) " x="34.4285714" y="7" width="17" height="4" rx="2"></rect>
                    <rect id="矩形备份-78" fill="#0D867F" transform="translate(42.928571, 4.500000) rotate(90.000000) translate(-42.928571, -4.500000) " x="38.4285714" y="0" width="9" height="9" rx="4.5"></rect>
                    <rect id="矩形" fill="#375B6C" x="1.42857143" y="14.4285714" width="45" height="5.14285714" rx="2.57142857"></rect>
                    <rect id="矩形备份" fill="#375B6C" x="1.42857143" y="41" width="40" height="5.14285714" rx="2.57142857"></rect>
                    <circle id="椭圆形" fill="#FF7E00" cx="21.4285714" cy="30.4285714" r="10"></circle>
                    <text id="变" font-family="PingFangSC-Semibold, PingFang SC" font-size="14" font-weight="500" fill="#FFFFFF">
                        <tspan x="14.4285714" y="35.4285714">变</tspan>
                    </text>
                </g>
            </g>
        </g>
    </g>
</svg>