<?xml version="1.0" standalone="no"?><!DOCTYPE svg PUBLIC "-//W3C//DTD SVG 1.1//EN" "http://www.w3.org/Graphics/SVG/1.1/DTD/svg11.dtd"><svg t="1748424787487" class="icon" viewBox="0 0 1024 1024" version="1.1" xmlns="http://www.w3.org/2000/svg" p-id="9404" width="50" height="50" xmlns:xlink="http://www.w3.org/1999/xlink"><path d="M497.4 185.3h32v656.8h-32z" fill="#ED1D23" p-id="9405"></path><path d="M497.4 185.3h32v152.9h-32zM388.509 736.471l22.627-22.627 123.46 123.46-22.628 22.627z" fill="#ED1D23" p-id="9406"></path><path d="M489.35 837.402l123.46-123.46 22.628 22.627-123.46 123.46z" fill="#ED1D23" p-id="9407"></path><path d="M388.534 838.695l22.627-22.627 123.46 123.46-22.628 22.627z" p-id="9408"></path><path d="M489.376 939.626l123.46-123.46 22.627 22.627-123.46 123.46z" p-id="9409"></path><path d="M489.362 186.585l22.627-22.627 123.46 123.46-22.627 22.627z" fill="#ED1D23" p-id="9410"></path><path d="M388.52 287.32l123.46-123.46 22.626 22.627-123.46 123.46z" fill="#ED1D23" p-id="9411"></path><path d="M489.378 84.503l22.627-22.628 123.46 123.46-22.627 22.627z" p-id="9412"></path><path d="M388.536 185.237l123.46-123.46 22.627 22.628-123.46 123.46z" p-id="9413"></path><path d="M497.4 665.9h32v176.2h-32z" fill="#ED1D23" p-id="9414"></path><path d="M431.6 332.7h160.7v375.1H431.6z" fill="#ED1D23" p-id="9415"></path></svg>