<?xml version="1.0" encoding="UTF-8"?>
<svg width="64px" height="64px" viewBox="0 0 64 64" version="1.1" xmlns="http://www.w3.org/2000/svg" xmlns:xlink="http://www.w3.org/1999/xlink">
    <title>编组备份</title>
    <g id="页面-1" stroke="none" stroke-width="1" fill="none" fill-rule="evenodd">
        <g id="插图" transform="translate(-335.000000, -150.000000)">
            <g id="编组备份" transform="translate(335.000000, 150.000000)">
                <rect id="矩形" x="0" y="0" width="64" height="64" rx="4"></rect>
                <g id="编组-2" transform="translate(8.000000, 6.000000)">
                    <path d="M0.857142857,9.42857143 L19.7142857,9.42857143 C20.6610596,9.42857143 21.4285714,10.1960833 21.4285714,11.1428571 C21.4285714,12.089631 20.6610596,12.8571429 19.7142857,12.8571429 L0.857142857,12.8571429 C-0.0896309997,12.8571429 -0.857142857,12.089631 -0.857142857,11.1428571 C-0.857142857,10.1960833 -0.0896309997,9.42857143 0.857142857,9.42857143 Z" id="矩形" fill="#E6EAE9" transform="translate(10.285714, 11.142857) rotate(90.000000) translate(-10.285714, -11.142857) "></path>
                    <path d="M14.5714286,9.42857143 L33.4285714,9.42857143 C34.3753453,9.42857143 35.1428571,10.1960833 35.1428571,11.1428571 C35.1428571,12.089631 34.3753453,12.8571429 33.4285714,12.8571429 L14.5714286,12.8571429 C13.6246547,12.8571429 12.8571429,12.089631 12.8571429,11.1428571 C12.8571429,10.1960833 13.6246547,9.42857143 14.5714286,9.42857143 Z" id="矩形备份-2" fill="#E6EAE9" transform="translate(24.000000, 11.142857) rotate(90.000000) translate(-24.000000, -11.142857) "></path>
                    <path d="M28.2857143,9.42857143 L47.1428571,9.42857143 C48.089631,9.42857143 48.8571429,10.1960833 48.8571429,11.1428571 C48.8571429,12.089631 48.089631,12.8571429 47.1428571,12.8571429 L28.2857143,12.8571429 C27.3389404,12.8571429 26.5714286,12.089631 26.5714286,11.1428571 C26.5714286,10.1960833 27.3389404,9.42857143 28.2857143,9.42857143 Z" id="矩形备份-3" fill="#E6EAE9" transform="translate(37.714286, 11.142857) rotate(90.000000) translate(-37.714286, -11.142857) "></path>
                    <rect id="矩形" fill="#E6EAE9" x="0" y="18" width="48" height="31" rx="3"></rect>
                    <path d="M8.55139703,4.28571429 L12.0200315,4.28571429 C12.9977098,4.28571429 13.8320901,4.99254037 13.9928194,5.95691631 L14.3773621,8.26417244 C14.4681571,8.80894276 14.1001375,9.3241703 13.5553671,9.41496535 C13.5010357,9.42402059 13.446049,9.42857143 13.3909681,9.42857143 L7.18046042,9.42857143 C6.62817567,9.42857143 6.18046042,8.98085618 6.18046042,8.42857143 C6.18046042,8.37349057 6.18501126,8.31850387 6.1940665,8.26417244 L6.57860919,5.95691631 C6.73933851,4.99254037 7.57371873,4.28571429 8.55139703,4.28571429 Z" id="矩形备份-6" fill="#0D867F"></path>
                    <path d="M22.2656827,4.28571429 L25.7343173,4.28571429 C26.7119956,4.28571429 27.5463758,4.99254037 27.7071051,5.95691631 L28.0916478,8.26417244 C28.1824428,8.80894276 27.8144232,9.3241703 27.2696529,9.41496535 C27.2153214,9.42402059 27.1603347,9.42857143 27.1052539,9.42857143 L20.8947461,9.42857143 C20.3424614,9.42857143 19.8947461,8.98085618 19.8947461,8.42857143 C19.8947461,8.37349057 19.899297,8.31850387 19.9083522,8.26417244 L20.2928949,5.95691631 C20.4536242,4.99254037 21.2880044,4.28571429 22.2656827,4.28571429 Z" id="矩形备份-8" fill="#0D867F"></path>
                    <path d="M35.9799685,4.28571429 L39.448603,4.28571429 C40.4262813,4.28571429 41.2606615,4.99254037 41.4213908,5.95691631 L41.8059335,8.26417244 C41.8967286,8.80894276 41.5287089,9.3241703 40.9839386,9.41496535 C40.9296071,9.42402059 40.8746204,9.42857143 40.8195396,9.42857143 L34.6090319,9.42857143 C34.0567471,9.42857143 33.6090319,8.98085618 33.6090319,8.42857143 C33.6090319,8.37349057 33.6135827,8.31850387 33.6226379,8.26417244 L34.0071806,5.95691631 C34.1679099,4.99254037 35.0022902,4.28571429 35.9799685,4.28571429 Z" id="矩形备份-10" fill="#0D867F"></path>
                    <path d="M8.55139703,11.1428571 L12.0200315,11.1428571 C12.9977098,11.1428571 13.8320901,11.8496832 13.9928194,12.8140592 L14.3773621,15.1213153 C14.4681571,15.6660856 14.1001375,16.1813132 13.5553671,16.2721082 C13.5010357,16.2811634 13.446049,16.2857143 13.3909681,16.2857143 L7.18046042,16.2857143 C6.62817567,16.2857143 6.18046042,15.837999 6.18046042,15.2857143 C6.18046042,15.2306334 6.18501126,15.1756467 6.1940665,15.1213153 L6.57860919,12.8140592 C6.73933851,11.8496832 7.57371873,11.1428571 8.55139703,11.1428571 Z" id="矩形备份-7" fill="#0D867F"></path>
                    <path d="M22.2656827,11.1428571 L25.7343173,11.1428571 C26.7119956,11.1428571 27.5463758,11.8496832 27.7071051,12.8140592 L28.0916478,15.1213153 C28.1824428,15.6660856 27.8144232,16.1813132 27.2696529,16.2721082 C27.2153214,16.2811634 27.1603347,16.2857143 27.1052539,16.2857143 L20.8947461,16.2857143 C20.3424614,16.2857143 19.8947461,15.837999 19.8947461,15.2857143 C19.8947461,15.2306334 19.899297,15.1756467 19.9083522,15.1213153 L20.2928949,12.8140592 C20.4536242,11.8496832 21.2880044,11.1428571 22.2656827,11.1428571 Z" id="矩形备份-9" fill="#0D867F"></path>
                    <path d="M35.9799685,11.1428571 L39.448603,11.1428571 C40.4262813,11.1428571 41.2606615,11.8496832 41.4213908,12.8140592 L41.8059335,15.1213153 C41.8967286,15.6660856 41.5287089,16.1813132 40.9839386,16.2721082 C40.9296071,16.2811634 40.8746204,16.2857143 40.8195396,16.2857143 L34.6090319,16.2857143 C34.0567471,16.2857143 33.6090319,15.837999 33.6090319,15.2857143 C33.6090319,15.2306334 33.6135827,15.1756467 33.6226379,15.1213153 L34.0071806,12.8140592 C34.1679099,11.8496832 35.0022902,11.1428571 35.9799685,11.1428571 Z" id="矩形备份-11" fill="#0D867F"></path>
                    <rect id="矩形备份-37" fill="#375B6C" x="0" y="47" width="48" height="3" rx="1.5"></rect>
                    <circle id="椭圆形" fill="#FF7E00" cx="24" cy="32" r="13"></circle>
                    <text id="容" font-family="PingFangSC-Semibold, PingFang SC" font-size="16" font-weight="500" fill="#FFFFFF">
                        <tspan x="16" y="38">容</tspan>
                    </text>
                </g>
            </g>
        </g>
    </g>
</svg>