<?xml version="1.0" encoding="UTF-8"?>
<svg width="64px" height="64px" viewBox="0 0 64 64" version="1.1" xmlns="http://www.w3.org/2000/svg" xmlns:xlink="http://www.w3.org/1999/xlink">
    <title>编组 45备份</title>
    <g id="页面-1" stroke="none" stroke-width="1" fill="none" fill-rule="evenodd">
        <g id="插图" transform="translate(-241.000000, -150.000000)">
            <g id="编组-45备份" transform="translate(241.000000, 150.000000)">
                <rect id="矩形" x="0" y="0" width="64" height="64" rx="4"></rect>
                <g id="编组-44" transform="translate(7.000000, 9.000000)">
                    <rect id="矩形" fill="#E6EAE9" x="0" y="0" width="16.0714286" height="46" rx="3.57142857"></rect>
                    <rect id="矩形备份-41" fill="#E6EAE9" x="16.9642857" y="0" width="16.0714286" height="46" rx="3.57142857"></rect>
                    <rect id="矩形备份-42" fill="#E6EAE9" x="33.9285714" y="0" width="16.0714286" height="46" rx="3.57142857"></rect>
                    <path d="M7.94393868,9.09243697 L8.12748989,9.09243697 C8.57494281,9.09243697 8.93767507,9.45516924 8.93767507,9.90262216 L8.93767507,22.5679661 C8.93767507,23.015419 8.57494281,23.3781513 8.12748989,23.3781513 L7.94393868,23.3781513 C7.49648576,23.3781513 7.1337535,23.015419 7.1337535,22.5679661 L7.1337535,9.90262216 C7.1337535,9.45516924 7.49648576,9.09243697 7.94393868,9.09243697 Z" id="矩形备份-29" fill="#375B6C" transform="translate(8.035714, 16.235294) rotate(90.000000) translate(-8.035714, -16.235294) "></path>
                    <path d="M8.03571429,-5.78081232 L9.48043107,-5.78081232 C9.92788399,-5.78081232 10.2906162,-5.41808006 10.2906162,-4.97062714 L10.2906162,9.48043107 C10.2906162,9.92788399 9.92788399,10.2906162 9.48043107,10.2906162 L8.03571429,10.2906162 C6.79036632,10.2906162 5.78081232,9.28106225 5.78081232,8.03571429 L5.78081232,-3.52591036 C5.78081232,-4.77125833 6.79036632,-5.78081232 8.03571429,-5.78081232 Z" id="矩形备份-48" fill="#0D867F" transform="translate(8.035714, 2.254902) rotate(90.000000) translate(-8.035714, -2.254902) "></path>
                    <path d="M25,-5.78081232 L26.4447168,-5.78081232 C26.8921697,-5.78081232 27.254902,-5.41808006 27.254902,-4.97062714 L27.254902,9.48043107 C27.254902,9.92788399 26.8921697,10.2906162 26.4447168,10.2906162 L25,10.2906162 C23.754652,10.2906162 22.745098,9.28106225 22.745098,8.03571429 L22.745098,-3.52591036 C22.745098,-4.77125833 23.754652,-5.78081232 25,-5.78081232 Z" id="矩形备份-49" fill="#0D867F" transform="translate(25.000000, 2.254902) rotate(90.000000) translate(-25.000000, -2.254902) "></path>
                    <path d="M41.9642857,-5.78081232 L43.4090025,-5.78081232 C43.8564554,-5.78081232 44.2191877,-5.41808006 44.2191877,-4.97062714 L44.2191877,9.48043107 C44.2191877,9.92788399 43.8564554,10.2906162 43.4090025,10.2906162 L41.9642857,10.2906162 C40.7189377,10.2906162 39.7093838,9.28106225 39.7093838,8.03571429 L39.7093838,-3.52591036 C39.7093838,-4.77125833 40.7189377,-5.78081232 41.9642857,-5.78081232 Z" id="矩形备份-50" fill="#0D867F" transform="translate(41.964286, 2.254902) rotate(90.000000) translate(-41.964286, -2.254902) "></path>
                    <path d="M24.9082244,9.09243697 L25.0917756,9.09243697 C25.5392285,9.09243697 25.9019608,9.45516924 25.9019608,9.90262216 L25.9019608,22.5679661 C25.9019608,23.015419 25.5392285,23.3781513 25.0917756,23.3781513 L24.9082244,23.3781513 C24.4607715,23.3781513 24.0980392,23.015419 24.0980392,22.5679661 L24.0980392,9.90262216 C24.0980392,9.45516924 24.4607715,9.09243697 24.9082244,9.09243697 Z" id="矩形备份-44" fill="#375B6C" transform="translate(25.000000, 16.235294) rotate(90.000000) translate(-25.000000, -16.235294) "></path>
                    <path d="M41.8725101,9.09243697 L42.0560613,9.09243697 C42.5035142,9.09243697 42.8662465,9.45516924 42.8662465,9.90262216 L42.8662465,22.5679661 C42.8662465,23.015419 42.5035142,23.3781513 42.0560613,23.3781513 L41.8725101,23.3781513 C41.4250572,23.3781513 41.0623249,23.015419 41.0623249,22.5679661 L41.0623249,9.90262216 C41.0623249,9.45516924 41.4250572,9.09243697 41.8725101,9.09243697 Z" id="矩形备份-46" fill="#375B6C" transform="translate(41.964286, 16.235294) rotate(90.000000) translate(-41.964286, -16.235294) "></path>
                    <path d="M7.94393868,23.5238095 L8.12748989,23.5238095 C8.57494281,23.5238095 8.93767507,23.8865418 8.93767507,24.3339947 L8.93767507,36.9993386 C8.93767507,37.4467915 8.57494281,37.8095238 8.12748989,37.8095238 L7.94393868,37.8095238 C7.49648576,37.8095238 7.1337535,37.4467915 7.1337535,36.9993386 L7.1337535,24.3339947 C7.1337535,23.8865418 7.49648576,23.5238095 7.94393868,23.5238095 Z" id="矩形备份-43" fill="#375B6C" transform="translate(8.035714, 30.666667) rotate(90.000000) translate(-8.035714, -30.666667) "></path>
                    <path d="M24.9082244,23.5238095 L25.0917756,23.5238095 C25.5392285,23.5238095 25.9019608,23.8865418 25.9019608,24.3339947 L25.9019608,36.9993386 C25.9019608,37.4467915 25.5392285,37.8095238 25.0917756,37.8095238 L24.9082244,37.8095238 C24.4607715,37.8095238 24.0980392,37.4467915 24.0980392,36.9993386 L24.0980392,24.3339947 C24.0980392,23.8865418 24.4607715,23.5238095 24.9082244,23.5238095 Z" id="矩形备份-45" fill="#375B6C" transform="translate(25.000000, 30.666667) rotate(90.000000) translate(-25.000000, -30.666667) "></path>
                    <path d="M41.8725101,23.5238095 L42.0560613,23.5238095 C42.5035142,23.5238095 42.8662465,23.8865418 42.8662465,24.3339947 L42.8662465,36.9993386 C42.8662465,37.4467915 42.5035142,37.8095238 42.0560613,37.8095238 L41.8725101,37.8095238 C41.4250572,37.8095238 41.0623249,37.4467915 41.0623249,36.9993386 L41.0623249,24.3339947 C41.0623249,23.8865418 41.4250572,23.5238095 41.8725101,23.5238095 Z" id="矩形备份-47" fill="#375B6C" transform="translate(41.964286, 30.666667) rotate(90.000000) translate(-41.964286, -30.666667) "></path>
                    <ellipse id="椭圆形" fill="#FA5353" cx="2.67857143" cy="12.627451" rx="1" ry="1"></ellipse>
                    <ellipse id="椭圆形备份-3" fill="#FA5353" cx="19.6428571" cy="12.627451" rx="1" ry="1"></ellipse>
                    <ellipse id="椭圆形备份-12" fill="#FA5353" cx="36.6071429" cy="12.627451" rx="1" ry="1"></ellipse>
                    <ellipse id="椭圆形备份" fill="#0D867F" cx="8.03571429" cy="12.627451" rx="1" ry="1"></ellipse>
                    <ellipse id="椭圆形备份-4" fill="#0D867F" cx="25" cy="12.627451" rx="1" ry="1"></ellipse>
                    <ellipse id="椭圆形备份-13" fill="#0D867F" cx="41.9642857" cy="12.627451" rx="1" ry="1"></ellipse>
                    <ellipse id="椭圆形备份-15" fill="#375B6C" cx="10.7142857" cy="12.627451" rx="1" ry="1"></ellipse>
                    <ellipse id="椭圆形备份-17" fill="#375B6C" cx="27.6785714" cy="12.627451" rx="1" ry="1"></ellipse>
                    <ellipse id="椭圆形备份-19" fill="#375B6C" cx="44.6428571" cy="12.627451" rx="1" ry="1"></ellipse>
                    <ellipse id="椭圆形备份-16" fill="#375B6C" cx="13.3928571" cy="12.627451" rx="1" ry="1"></ellipse>
                    <ellipse id="椭圆形备份-18" fill="#375B6C" cx="30.3571429" cy="12.627451" rx="1" ry="1"></ellipse>
                    <ellipse id="椭圆形备份-20" fill="#375B6C" cx="47.3214286" cy="12.627451" rx="1" ry="1"></ellipse>
                    <ellipse id="椭圆形备份-2" fill="#FF7E00" cx="5.35714286" cy="12.627451" rx="1" ry="1"></ellipse>
                    <ellipse id="椭圆形备份-7" fill="#FF7E00" cx="22.3214286" cy="12.627451" rx="1" ry="1"></ellipse>
                    <ellipse id="椭圆形备份-14" fill="#FF7E00" cx="39.2857143" cy="12.627451" rx="1" ry="1"></ellipse>
                    <rect id="矩形" stroke="#375B6C" stroke-width="1.892857" fill="#363E3F" x="4.51785707" y="20.7895658" width="7.03571443" height="5.32282927" rx="0.892857143"></rect>
                    <rect id="矩形备份-52" stroke="#375B6C" stroke-width="1.892857" fill="#363E3F" x="21.4821428" y="20.7895658" width="7.09331812" height="5.32282927" rx="0.892857143"></rect>
                    <rect id="矩形备份-54" stroke="#375B6C" stroke-width="1.892857" fill="#363E3F" x="38.3888248" y="20.7895658" width="7.09331812" height="5.32282927" rx="0.892857143"></rect>
                    <rect id="矩形备份-51" stroke="#375B6C" stroke-width="1.892857" fill="#363E3F" x="4.51785707" y="35.2209383" width="7.03571443" height="5.32282927" rx="0.892857143"></rect>
                    <rect id="矩形备份-53" stroke="#375B6C" stroke-width="1.892857" fill="#363E3F" x="21.4821428" y="35.2209383" width="7.09331812" height="5.32282927" rx="0.892857143"></rect>
                    <rect id="矩形备份-55" stroke="#375B6C" stroke-width="1.892857" fill="#363E3F" x="38.3888248" y="35.2209383" width="7.09331812" height="5.32282927" rx="0.892857143"></rect>
                </g>
            </g>
        </g>
    </g>
</svg>