<?xml version="1.0" encoding="UTF-8"?>
<svg width="62px" height="62px" viewBox="0 0 62 62" version="1.1" xmlns="http://www.w3.org/2000/svg" xmlns:xlink="http://www.w3.org/1999/xlink">
    <title>特高频 高频 超声 TEV</title>
    <g id="页面-1" stroke="none" stroke-width="1" fill="none" fill-rule="evenodd">
        <g id="特高频-高频-超声-TEV" transform="translate(-1.000000, -1.000000)">
            <rect id="矩形" x="0" y="0" width="64" height="64" rx="4"></rect>
            <circle id="椭圆形" fill="#0D867F" cx="32" cy="32" r="31"></circle>
            <g id="编组-50" transform="translate(20.000000, 11.000000)">
                <path d="M4.12543535,0 L19.8745646,0 C22.1529797,-2.44217711e-15 24,1.84702032 24,4.12543535 L24,16.64467 C24,17.3408905 23.9091161,18.0341324 23.7296517,18.7068252 L21.9288848,25.4567058 C21.7494205,26.1293986 21.6585366,26.8226405 21.6585366,27.518861 L21.6585366,40.6426082 C21.6585366,41.9445597 20.6030963,43 19.3011448,43 L4.69885525,43 C3.39690369,43 2.34146341,41.9445597 2.34146341,40.6426082 L2.34146341,27.2187416 C2.34146341,26.4812532 2.23948652,25.7473068 2.03842989,25.0377539 L0.303033521,18.9133323 C0.101976896,18.2037794 -1.68604056e-15,17.4698331 0,16.7323447 L0,4.12543535 C-2.79025368e-16,1.84702032 1.84702032,4.18538051e-16 4.12543535,0 Z" id="矩形" fill="#ACD4CF"></path>
                <rect id="矩形" fill="#0D867F" x="4.09756098" y="2.92517007" width="15.5121951" height="22.2312925" rx="0.589347934"></rect>
                <rect id="矩形" fill="#5BACA7" x="5.26829268" y="4.0952381" width="13.1853659" height="19.8911565" rx="0.294673967"></rect>
                <rect id="矩形" fill="#5BACA7" x="9.65853659" y="29.2517007" width="4.68292683" height="9.36054422" rx="2.34146341"></rect>
                <ellipse id="椭圆形" fill="#EEF6F5" cx="12" cy="31.5918367" rx="2.34146341" ry="2.34013605"></ellipse>
                <rect id="矩形" fill="#EEF6F5" x="7.02439024" y="6.14285714" width="9.65853659" height="1.75510204" rx="0.87755102"></rect>
                <rect id="矩形备份-69" fill="#EEF6F5" x="7.02439024" y="8.7755102" width="6.43902439" height="1.75510204" rx="0.87755102"></rect>
                <rect id="矩形备份-70" fill="#EEF6F5" x="7.02439024" y="11.4081633" width="4.09756098" height="1.75510204" rx="0.87755102"></rect>
            </g>
        </g>
    </g>
</svg>