<?xml version="1.0" encoding="UTF-8"?>
<svg width="62px" height="62px" viewBox="0 0 62 62" version="1.1" xmlns="http://www.w3.org/2000/svg" xmlns:xlink="http://www.w3.org/1999/xlink">
    <title>气体检测</title>
    <g id="页面-1" stroke="none" stroke-width="1" fill="none" fill-rule="evenodd">
        <g id="气体检测" transform="translate(-1.000000, -1.000000)">
            <rect id="矩形备份-72" x="0" y="0" width="64" height="64" rx="4"></rect>
            <circle id="椭圆形备份-21" fill="#0D867F" cx="32" cy="32" r="31"></circle>
            <g id="编组-51" transform="translate(21.000000, 6.000000)">
                <rect id="矩形备份-87" fill="#5CACA7" x="6.76923077" y="6.04395604" width="8.46153846" height="1.94805195" rx="0.488000843"></rect>
                <path d="M2.60267115,7.46753247 L19.3973289,7.46753247 C20.8347444,7.46753247 22,8.63278803 22,10.0702036 L22,24.9699477 C22,25.3787523 21.8747252,25.777739 21.6410473,26.1131728 L20.3254658,28.00163 C20.091788,28.3370638 19.9665131,28.7360505 19.9665131,29.1448551 L19.9665131,32.8650985 C19.9665131,33.0666409 19.9969766,33.2670255 20.0568714,33.4594623 L20.5439212,35.0243133 C20.6637107,35.409187 20.7246377,35.8099562 20.7246377,36.2130409 L20.7246377,47.3973289 C20.7246377,48.8347444 19.5593821,50 18.1219665,50 L3.87803347,50 C2.44061788,50 1.27536232,48.8347444 1.27536232,47.3973289 L1.27536232,36.209257 C1.27536232,35.8086523 1.33554197,35.4103204 1.4538868,35.0275951 L1.93928616,33.4578214 C1.99845857,33.2664588 2.0285484,33.0672928 2.0285484,32.8669905 L2.0285484,29.1644176 C2.0285484,28.7434885 1.89574096,28.3332899 1.64903793,27.9922343 L0.379510475,26.237171 C0.132807444,25.8961154 4.79607212e-15,25.4859168 0,25.0649877 L0,10.0702036 C-1.76032639e-16,8.63278803 1.16525556,7.46753247 2.60267115,7.46753247 Z" id="矩形" fill="#ACD4CF"></path>
                <path d="M7.12095596,3.12187812 L14.879044,3.12187812 C15.0985206,3.12187812 15.3032073,3.23252366 15.4234237,3.41614817 L15.9665552,4.24575425 L15.9665552,4.24575425 L6.03344482,4.24575425 L6.57657629,3.41614817 C6.69679268,3.23252366 6.90147944,3.12187812 7.12095596,3.12187812 Z" id="矩形备份-84" fill="#5CACA7"></path>
                <path d="M6.03344482,4.24575425 L15.9665552,4.24575425 L15.9665552,5.8428387 C15.9665552,6.2021926 15.6752413,6.49350649 15.3158874,6.49350649 L6.68411261,6.49350649 C6.32475871,6.49350649 6.03344482,6.2021926 6.03344482,5.8428387 L6.03344482,4.24575425 L6.03344482,4.24575425 Z" id="矩形" fill="#ACD4CF"></path>
                <rect id="矩形" fill="#ACD4CF" x="6.69565217" y="1.62337662" width="8.46153846" height="1.4985015" rx="0.488000843"></rect>
                <rect id="矩形" fill="#ACD4CF" x="10.2028986" y="0" width="1.5942029" height="2.27272727" rx="0.488000843"></rect>
                <rect id="矩形" fill="#0D867F" x="2.86956522" y="11.3636364" width="15.942029" height="11.6883117" rx="0.650667791"></rect>
                <path d="M4.22093398,12.5818036 L17.4602254,12.5818036 C17.5706824,12.5818036 17.6602254,12.6713467 17.6602254,12.7818036 L17.6602254,21.7848434 C17.6602254,21.8953004 17.5706824,21.9848434 17.4602254,21.9848434 L4.22093398,21.9848434 C4.11047703,21.9848434 4.02093398,21.8953004 4.02093398,21.7848434 L4.02093398,12.7818036 C4.02093398,12.6713467 4.11047703,12.5818036 4.22093398,12.5818036 Z" id="矩形" fill="#5BACA7"></path>
                <path d="M3.59111937,28.2467532 L7.01412387,28.2467532 C7.10465366,28.2467532 7.19108951,28.2844746 7.25265273,28.3508494 L9.05826719,30.2975842 C9.18045341,30.4293201 9.1727119,30.6351646 9.04097604,30.7573508 C8.98081564,30.8131501 8.90179221,30.8441558 8.81973833,30.8441558 L5.31106799,30.8441558 C5.21779819,30.8441558 5.12901418,30.804125 5.06725963,30.7342277 L3.34731102,28.7874929 C3.22834571,28.6528412 3.241062,28.4472441 3.37571364,28.3282788 C3.43517241,28.2757467 3.51177855,28.2467532 3.59111937,28.2467532 Z" id="矩形备份-73" fill="#EEF6F5"></path>
                <path d="M9.18540087,36.038961 L12.6729893,36.038961 C12.8526663,36.038961 12.9983232,36.184618 12.9983232,36.3642949 C12.9983232,36.3864228 12.9960657,36.4084929 12.9915856,36.4301625 L12.4884254,38.8639103 C12.4571879,39.015004 12.3241181,39.1233766 12.1698291,39.1233766 L9.68856105,39.1233766 C9.53427204,39.1233766 9.4012023,39.015004 9.36996474,38.8639103 L8.86680455,36.4301625 C8.83042692,36.2542066 8.94357744,36.0820763 9.11953333,36.0456986 C9.14120291,36.0412186 9.16327302,36.038961 9.18540087,36.038961 Z" id="矩形备份-82" fill="#EEF6F5"></path>
                <path d="M12.8374962,28.2467532 L16.2605007,28.2467532 C16.3510305,28.2467532 16.4374663,28.2844746 16.4990295,28.3508494 L18.304644,30.2975842 C18.4268302,30.4293201 18.4190887,30.6351646 18.2873529,30.7573508 C18.2271925,30.8131501 18.148169,30.8441558 18.0661151,30.8441558 L14.5574448,30.8441558 C14.464175,30.8441558 14.375391,30.804125 14.3136364,30.7342277 L12.5936878,28.7874929 C12.4747225,28.6528412 12.4874388,28.4472441 12.6220904,28.3282788 C12.6815492,28.2757467 12.7581554,28.2467532 12.8374962,28.2467532 Z" id="矩形备份-80" fill="#EEF6F5" transform="translate(15.463768, 29.545455) scale(-1, 1) translate(-15.463768, -29.545455) "></path>
                <path d="M4.46376812,36.3642949 C4.46376812,36.184618 4.60942506,36.038961 4.78910201,36.038961 L7.08222561,36.038961 C7.23016042,36.038961 7.35947032,36.1387684 7.39694693,36.2818775 L8.60869565,40.9090909 L9.87756466,40.9090909 C10.0572416,40.9090909 10.2028986,41.0547479 10.2028986,41.2344248 L10.2028986,43.5058349 C10.2028986,43.6855119 10.0572416,43.8311688 9.87756466,43.8311688 L4.78910201,43.8311688 C4.60942506,43.8311688 4.46376812,43.6855119 4.46376812,43.5058349 L4.46376812,36.3642949 Z" id="形状结合" fill="#5BACA7"></path>
                <path d="M11.4782609,36.3642949 C11.4782609,36.184618 11.6239178,36.038961 11.8035948,36.038961 L14.0890936,36.038961 C14.240553,36.038961 14.3719769,36.1434802 14.4060755,36.2910513 L15.4722609,40.908961 L16.8920574,40.9090909 C17.0717344,40.9090909 17.2173913,41.0547479 17.2173913,41.2344248 L17.2173913,43.5058349 C17.2173913,43.6855119 17.0717344,43.8311688 16.8920574,43.8311688 L11.8035948,43.8311688 C11.6239178,43.8311688 11.4782609,43.6855119 11.4782609,43.5058349 L11.4782609,36.3642949 Z" id="形状结合备份" fill="#5BACA7" transform="translate(14.347826, 39.935065) scale(-1, 1) translate(-14.347826, -39.935065) "></path>
            </g>
        </g>
    </g>
</svg>