<?xml version="1.0" encoding="UTF-8"?>
<svg width="62px" height="62px" viewBox="0 0 62 62" version="1.1" xmlns="http://www.w3.org/2000/svg" xmlns:xlink="http://www.w3.org/1999/xlink">
    <title>红外</title>
    <g id="页面-1" stroke="none" stroke-width="1" fill="none" fill-rule="evenodd">
        <g id="红外" transform="translate(-1.000000, -1.000000)">
            <rect id="矩形" x="0" y="0" width="64" height="64" rx="4"></rect>
            <circle id="椭圆形" fill="#0D867F" cx="32" cy="32" r="31"></circle>
            <g id="编组-9" transform="translate(12.000000, 14.000000)">
                <g id="编组-8" transform="translate(0.000000, 2.066332)">
                    <rect id="矩形备份-38" fill="#D3E7E4" opacity="0.400000006" x="8.04255319" y="11.6784422" width="9.82978723" height="24.2552261" rx="1.64045007"></rect>
                    <path d="M5.62261203,0 L28.7425287,0 C29.6485242,-1.66428684e-16 30.3829787,0.734454514 30.3829787,1.64045007 L30.3829787,13.6313589 C30.3829787,14.5373545 29.6485242,15.271809 28.7425287,15.271809 L1.64045007,15.271809 C0.734454514,15.271809 1.10952456e-16,14.5373545 0,13.6313589 L0,10.2482478 C-1.04242831e-16,9.39704051 0.203811548,8.55820579 0.594389465,7.80189713 L4.16505103,0.88772678 C4.44662497,0.34249164 5.00896292,5.56814724e-16 5.62261203,0 Z" id="矩形" fill="#ACD4CF"></path>
                    <rect id="矩形" fill="#ACD4CF" x="5.36170213" y="11.6784422" width="9.82978723" height="24.2552261" rx="1.64045007"></rect>
                    <rect id="矩形" fill="#FFFFFF" opacity="0.800000012" x="10.7234043" y="2.69502512" width="14.2978723" height="6.28839194" rx="1.64045007"></rect>
                    <path d="M17.8723404,17.0684924 L19.000862,17.0684924 C19.3856427,17.0684924 19.7187007,17.3359671 19.8017528,17.7116777 L21.2263597,24.156303 C21.324136,24.5986228 21.0448283,25.0364572 20.6025086,25.1342335 C20.544372,25.1470848 20.4850089,25.1535678 20.4254689,25.1535678 L17.8723404,25.1535678 L17.8723404,25.1535678 L17.8723404,17.0684924 Z" id="矩形备份-40" fill="#ACD4CF"></path>
                    <rect id="矩形备份-39" fill="#FFFFFF" opacity="0.800000012" x="10.7234043" y="9.88175876" width="6.25531915" height="1.79668341" rx="0.898341706"></rect>
                </g>
                <path d="M34.6377015,14.1328838 C36.5378791,13.3367836 37.873592,11.4517355 37.873592,9.25306542 C37.873592,7.07732724 36.5655964,5.20870301 34.6969723,4.39851125" id="路径" stroke="#FF8888" stroke-width="1.79668341" stroke-linecap="round" stroke-linejoin="round"></path>
                <path d="M35.4821579,18.5598961 C39.2815458,17.1933575 42,13.5423544 42,9.25306542 C42,5.01885068 39.3509072,1.40663601 35.6279717,0" id="路径" stroke="#FF8888" stroke-width="1.79668341" opacity="0.600000024" stroke-linecap="round" stroke-linejoin="round"></path>
            </g>
        </g>
    </g>
</svg>