<?xml version="1.0" encoding="UTF-8"?>
<svg width="62px" height="62px" viewBox="0 0 62 62" version="1.1" xmlns="http://www.w3.org/2000/svg" xmlns:xlink="http://www.w3.org/1999/xlink">
    <title>可视化超声</title>
    <g id="页面-1" stroke="none" stroke-width="1" fill="none" fill-rule="evenodd">
        <g id="可视化超声" transform="translate(-1.000000, -1.000000)">
            <rect id="矩形备份-88" x="0" y="0" width="64" height="64" rx="4"></rect>
            <circle id="椭圆形备份-22" fill="#0D867F" cx="32" cy="32" r="31"></circle>
            <g id="编组-54" transform="translate(11.500000, 15.500000)">
                <path d="M7.6919293,0.00800185303 L33.3526357,0.112179072 C34.5780822,0.117154134 35.7430118,0.645499229 36.5540621,1.564162 L39.92504,5.38241118 C40.6177295,6.16700878 41,7.17759163 41,8.22421105 L41,24.895789 C41,25.9424084 40.6177295,26.9529912 39.92504,27.7375888 L36.5609981,31.5479817 C35.7459251,32.471201 34.5736746,33 33.3421399,33 L7.65786012,33 C6.42632536,33 5.25407493,32.471201 4.43900192,31.5479817 L1.07495999,27.7375888 C0.382270455,26.9529912 -3.46594612e-15,25.9424084 0,24.895789 L0,8.20193412 C3.42618617e-15,7.16875862 0.372531979,6.1702253 1.049253,5.38952032 L4.42993224,1.48937086 C5.24948693,0.543884596 6.44069457,0.00292209599 7.6919293,0.00800185303 Z" id="矩形" fill="#ACD4CF"></path>
                <rect id="矩形" fill="#0D867F" x="6" y="6" width="29.5581395" height="20.16" rx="0.954181818"></rect>
                <path d="M7.79974002,7.52315307 L33.8455582,7.52315307 C34.1090483,7.52315307 34.3226491,7.73675394 34.3226491,8.00024396 L34.3226491,24.0460622 C34.3226491,24.3095522 34.1090483,24.5231531 33.8455582,24.5231531 L7.79974002,24.5231531 C7.53625,24.5231531 7.32264913,24.3095522 7.32264913,24.0460622 L7.32264913,8.00024396 C7.32264913,7.73675394 7.53625,7.52315307 7.79974002,7.52315307 Z" id="矩形" fill="#5BACA7"></path>
                <g id="编组" transform="translate(11.198758, 10.837902)" fill="#ACD4CF" fill-rule="nonzero">
                    <path d="M0.317031303,10.8966113 C-0.0934950033,10.660623 -0.0934950033,10.3302396 0.248610237,10.0470537 L4.49071552,5.94085903 C4.83282079,5.70487082 5.31176816,5.65767319 5.72229446,5.84646375 L9.41703131,7.63997407 L16.0538734,2.73141949 C16.3959787,2.49543129 18.4779334,1.36268793 19.4358282,2.73141949 L19.4358282,11.0854018 C19.4358282,11.1325995 0.932820776,11.0382042 0.932820776,11.0382042 C0.727557608,11.0382042 0.52229447,10.9910065 0.317031303,10.8966113 Z M2,4 C3.1045695,4 4,3.1045695 4,2 C4,0.8954305 3.1045695,0 2,0 C0.8954305,0 0,0.8954305 0,2 C0,3.1045695 0.8954305,4 2,4 Z" id="形状"></path>
                </g>
                <rect id="矩形" fill="#EEF6F5" x="15.9360465" y="2.04" width="9" height="2" rx="0.477090895"></rect>
                <rect id="矩形备份-89" fill="#EEF6F5" x="19.0697674" y="28.08" width="2.86046512" height="2.88" rx="1.43023256"></rect>
            </g>
        </g>
    </g>
</svg>