<?xml version="1.0" encoding="UTF-8"?>
<svg width="64px" height="64px" viewBox="0 0 64 64" version="1.1" xmlns="http://www.w3.org/2000/svg" xmlns:xlink="http://www.w3.org/1999/xlink">
    <title>编组 49备份</title>
    <g id="页面-1" stroke="none" stroke-width="1" fill="none" fill-rule="evenodd">
        <g id="插图" transform="translate(-143.000000, -150.000000)">
            <g id="编组-49备份" transform="translate(143.000000, 150.000000)">
                <rect id="矩形" x="0" y="0" width="64" height="64" rx="4"></rect>
                <g id="编组-48" transform="translate(7.000000, 15.000000)">
                    <path d="M-5.26845382,20.2649429 L16.1970253,20.2649429 C17.490386,20.2649429 18.538862,21.3134189 18.538862,22.6067797 C18.538862,23.9001404 17.490386,24.9486164 16.1970253,24.9486164 L-5.26845382,24.9486164 C-6.56181454,24.9486164 -7.61029056,23.9001404 -7.61029056,22.6067797 C-7.61029056,21.3134189 -6.56181454,20.2649429 -5.26845382,20.2649429 Z" id="矩形备份" fill="#FF7E00" transform="translate(5.464286, 22.606780) rotate(90.000000) translate(-5.464286, -22.606780) "></path>
                    <path d="M33.8922605,20.2649429 L55.3577395,20.2649429 C56.6511003,20.2649429 57.6995763,21.3134189 57.6995763,22.6067797 C57.6995763,23.9001404 56.6511003,24.9486164 55.3577395,24.9486164 L33.8922605,24.9486164 C32.5988997,24.9486164 31.5504237,23.9001404 31.5504237,22.6067797 C31.5504237,21.3134189 32.5988997,20.2649429 33.8922605,20.2649429 Z" id="矩形备份-64" fill="#375B6C" transform="translate(44.625000, 22.606780) rotate(90.000000) translate(-44.625000, -22.606780) "></path>
                    <rect id="矩形备份-64" fill="#0D867F" x="5.91964286" y="10.3694915" width="28.2321429" height="6.31186441" rx="2.73214286"></rect>
                    <rect id="矩形" fill="#0D867F" x="0.910714286" y="0" width="9.10714286" height="26.1491525" rx="1.65277777"></rect>
                    <rect id="矩形" fill="#0D867F" x="0" y="24.3457627" width="10.9285714" height="1.80338983" rx="0.901694915"></rect>
                    <rect id="矩形备份-58" fill="#0D867F" x="0" y="5.41016949" width="10.9285714" height="1.80338983" rx="0.901694915"></rect>
                    <rect id="矩形备份-60" fill="#0D867F" x="31.7232143" y="17.1322034" width="15.4821429" height="6.31186441" rx="1.65277777"></rect>
                    <rect id="矩形备份-65" fill="#0D867F" x="32.6339286" y="25.2474576" width="6.375" height="6.31186441" rx="1.65277777"></rect>
                    <rect id="矩形备份-62" fill="#0D867F" x="26.4107143" y="2.70508475" width="9.10714286" height="33.3627119" rx="1.65277777"></rect>
                    <rect id="矩形备份-66" fill="#E6EAE9" x="0" y="9.01694915" width="10.9285714" height="9.01694915" rx="1.65277777"></rect>
                    <rect id="矩形备份-63" fill="#FF7E00" x="39.1607143" y="0" width="10.9285714" height="15.3288136" rx="1.65277777"></rect>
                    <g id="编组-47" transform="translate(11.839286, 7.213559)">
                        <rect id="矩形备份-59" fill="#FF7E00" x="0" y="1.80338983" width="2.73214286" height="9.01694915" rx="1.36607143"></rect>
                        <rect id="矩形备份-61" fill="#0D867F" x="1.82142857" y="0" width="10.9285714" height="12.6237288" rx="1.65277777"></rect>
                    </g>
                    <ellipse id="椭圆形" fill="#FF7E00" cx="44.625" cy="20.7389831" rx="4.55357143" ry="4.50847458"></ellipse>
                    <path d="M35.1030872,27.4926755 L41.3969128,27.4926755 C41.8998864,27.4926755 42.3076271,27.9004162 42.3076271,28.4033898 C42.3076271,28.9063634 41.8998864,29.3141041 41.3969128,29.3141041 L35.1030872,29.3141041 C34.6001136,29.3141041 34.1923729,28.9063634 34.1923729,28.4033898 C34.1923729,27.9004162 34.6001136,27.4926755 35.1030872,27.4926755 Z" id="矩形备份-68" fill="#FF7E00" transform="translate(38.250000, 28.403390) rotate(90.000000) translate(-38.250000, -28.403390) "></path>
                    <rect id="矩形备份-56" fill="#0D867F" x="39.1607143" y="13.5254237" width="10.9285714" height="1.80338983" rx="0.901694915"></rect>
                    <rect id="矩形备份" fill="#375B6C" x="0" y="33.3627119" width="51" height="4.63728814" rx="2.31864407"></rect>
                    <path d="M13.7148305,11.7130145 L22.7137409,11.7130145 C23.2167145,11.7130145 23.6244552,12.1207552 23.6244552,12.6237288 C23.6244552,13.1267024 23.2167145,13.5344431 22.7137409,13.5344431 L13.7148305,13.5344431 C13.2118569,13.5344431 12.8041162,13.1267024 12.8041162,12.6237288 C12.8041162,12.1207552 13.2118569,11.7130145 13.7148305,11.7130145 Z" id="矩形备份-67" fill="#0D867F" transform="translate(18.214286, 12.623729) rotate(90.000000) translate(-18.214286, -12.623729) "></path>
                </g>
            </g>
        </g>
    </g>
</svg>