<?xml version="1.0" standalone="no"?><!DOCTYPE svg PUBLIC "-//W3C//DTD SVG 1.1//EN" "http://www.w3.org/Graphics/SVG/1.1/DTD/svg11.dtd"><svg t="1744962746634" class="icon" viewBox="0 0 1024 1024" version="1.1" xmlns="http://www.w3.org/2000/svg" p-id="3736" xmlns:xlink="http://www.w3.org/1999/xlink" width="200" height="200"><path d="M20.48 0h982.812444C1016.945778 0 1024 7.850667 1024 23.552v976.896c0 15.701333-7.054222 23.552-20.707556 23.552H20.48Q0 1024 0 1000.448V23.552Q0 0 20.48 0z" fill="#F2F2F2" p-id="3737"></path><path d="M86.129778 68.266667h851.740444c11.377778 0 17.863111 6.826667 17.863111 20.48v846.506666c0 13.653333-5.916444 20.48-17.863111 20.48H86.129778C74.183111 955.733333 68.266667 948.906667 68.266667 935.253333V88.746667C68.266667 75.093333 74.183111 68.266667 86.129778 68.266667z" fill="#FFFFFF" p-id="3738"></path><path d="M652.060444 527.246222L526.336 647.054222c-30.72 38.912-70.769778 48.583111-106.496 25.6l-102.4-65.763555a71.111111 71.111111 0 0 0-83.285333 2.730666L68.266667 710.314667v224.369777C68.266667 948.679111 74.183111 955.733333 86.129778 955.733333h851.740444c11.377778 0 17.863111-7.054222 17.863111-21.048889V719.303111L788.024889 530.090667c-38.115556-53.248-96.597333-54.613333-135.964445-2.844445zM169.301333 285.127111a102.4 102.4 0 1 0 102.4-102.4 102.4 102.4 0 0 0-102.4 102.4z" fill="#DDE3E9" p-id="3739"></path></svg>