<?xml version="1.0" encoding="UTF-8"?>
<svg width="24px" height="24px" viewBox="0 0 24 24" version="1.1" xmlns="http://www.w3.org/2000/svg" xmlns:xlink="http://www.w3.org/1999/xlink">
    <title>调度号</title>
    <g id="V2智能监测移动终端" stroke="none" stroke-width="1" fill="none" fill-rule="evenodd">
        <g id="9.4红外检测部位-添加点位" transform="translate(-108.000000, -617.000000)" fill-rule="nonzero">
            <g id="调度号" transform="translate(108.000000, 617.000000)">
                <rect id="矩形" fill="#000000" opacity="0" x="0" y="0" width="24" height="24"></rect>
                <path d="M13.8890625,10.48125 C12.9820312,10.48125 12.4640625,11.1421875 12.4640625,11.9929687 C12.4640625,12.84375 12.9820313,13.5140625 13.8890625,13.5140625 C14.7960937,13.5140625 15.3140625,12.8460937 15.3140625,11.9929687 C15.3140625,11.1421875 14.7960937,10.48125 13.8890625,10.48125 L13.8890625,10.48125 Z M12,1.5 C6.2015625,1.5 1.5,6.2015625 1.5,12 C1.5,17.7984375 6.2015625,22.5 12,22.5 C17.7984375,22.5 22.5,17.7984375 22.5,12 C22.5,6.2015625 17.7984375,1.5 12,1.5 Z M10.3078125,14.7796875 C10.3078125,14.8429688 10.284375,14.8664063 10.1953125,14.7960938 L6.796875,12.0023437 L6.796875,14.7 L5.4375,14.7 L5.4375,9.215625 C5.4375,9.16875 5.4609375,9.12890625 5.55,9.19921875 L8.9484375,12 L8.9484375,9.28828125 L10.3101563,9.28828125 L10.3101563,14.7796875 L10.3078125,14.7796875 Z M13.8890625,14.7703125 C12.328125,14.7703125 10.9851563,13.6242188 10.9851563,11.9929687 C10.9851563,10.3617187 12.3304688,9.22265625 13.8890625,9.22265625 C15.4476563,9.22265625 16.7929688,10.3617188 16.7929688,11.9929687 C16.7929688,13.6242187 15.45,14.7703125 13.8890625,14.7703125 Z M17.765625,14.7796875 C17.34375,14.7796875 16.96875,14.4609375 16.96875,13.9992187 C16.96875,13.5375 17.34375,13.21875 17.765625,13.21875 C18.1804688,13.21875 18.5625,13.5375 18.5625,13.9992187 C18.5625,14.4609375 18.1804688,14.7796875 17.765625,14.7796875 Z" id="形状" fill="#CCCCCC"></path>
            </g>
        </g>
    </g>
</svg>